<mxfile host="app.diagrams.net" modified="2022-05-07T11:15:32.169Z" agent="5.0 (X11; Linux x86_64) AppleWebKit/537.36 (KHTML, like Gecko) Chrome/101.0.4951.41 Safari/537.36" etag="TZbx6MNZz2r5v-r3BhYA" version="18.0.1" type="github">
  <diagram id="C5RBs43oDa-KdzZeNtuy" name="Page-1">
    <mxGraphModel dx="2249" dy="1969" grid="1" gridSize="10" guides="1" tooltips="1" connect="1" arrows="1" fold="1" page="1" pageScale="1" pageWidth="827" pageHeight="1169" math="0" shadow="0">
      <root>
        <mxCell id="WIyWlLk6GJQsqaUBKTNV-0" />
        <mxCell id="WIyWlLk6GJQsqaUBKTNV-1" parent="WIyWlLk6GJQsqaUBKTNV-0" />
        <mxCell id="6bh2XxHN5Hgm9KBowLQd-1" value="" style="edgeStyle=orthogonalEdgeStyle;rounded=0;orthogonalLoop=1;jettySize=auto;html=1;" edge="1" parent="WIyWlLk6GJQsqaUBKTNV-1" source="WIyWlLk6GJQsqaUBKTNV-3" target="6bh2XxHN5Hgm9KBowLQd-0">
          <mxGeometry relative="1" as="geometry" />
        </mxCell>
        <mxCell id="WIyWlLk6GJQsqaUBKTNV-3" value="Create gameboard" style="rounded=1;whiteSpace=wrap;html=1;fontSize=12;glass=0;strokeWidth=1;shadow=0;" parent="WIyWlLk6GJQsqaUBKTNV-1" vertex="1">
          <mxGeometry x="160" y="-380" width="120" height="40" as="geometry" />
        </mxCell>
        <mxCell id="6bh2XxHN5Hgm9KBowLQd-3" value="" style="edgeStyle=orthogonalEdgeStyle;rounded=0;orthogonalLoop=1;jettySize=auto;html=1;" edge="1" parent="WIyWlLk6GJQsqaUBKTNV-1" source="6bh2XxHN5Hgm9KBowLQd-0" target="6bh2XxHN5Hgm9KBowLQd-2">
          <mxGeometry relative="1" as="geometry" />
        </mxCell>
        <mxCell id="6bh2XxHN5Hgm9KBowLQd-0" value="Set player to X" style="whiteSpace=wrap;html=1;rounded=1;glass=0;strokeWidth=1;shadow=0;" vertex="1" parent="WIyWlLk6GJQsqaUBKTNV-1">
          <mxGeometry x="160" y="-210" width="120" height="60" as="geometry" />
        </mxCell>
        <mxCell id="6bh2XxHN5Hgm9KBowLQd-5" value="" style="edgeStyle=orthogonalEdgeStyle;rounded=0;orthogonalLoop=1;jettySize=auto;html=1;" edge="1" parent="WIyWlLk6GJQsqaUBKTNV-1" source="6bh2XxHN5Hgm9KBowLQd-2" target="6bh2XxHN5Hgm9KBowLQd-4">
          <mxGeometry relative="1" as="geometry" />
        </mxCell>
        <mxCell id="6bh2XxHN5Hgm9KBowLQd-2" value="X placement is selected" style="whiteSpace=wrap;html=1;rounded=1;glass=0;strokeWidth=1;shadow=0;" vertex="1" parent="WIyWlLk6GJQsqaUBKTNV-1">
          <mxGeometry x="160" y="-130" width="120" height="60" as="geometry" />
        </mxCell>
        <mxCell id="6bh2XxHN5Hgm9KBowLQd-7" value="YES" style="edgeStyle=orthogonalEdgeStyle;rounded=0;orthogonalLoop=1;jettySize=auto;html=1;exitX=1;exitY=0.5;exitDx=0;exitDy=0;entryX=1;entryY=0.5;entryDx=0;entryDy=0;" edge="1" parent="WIyWlLk6GJQsqaUBKTNV-1" source="6bh2XxHN5Hgm9KBowLQd-4" target="6bh2XxHN5Hgm9KBowLQd-2">
          <mxGeometry relative="1" as="geometry">
            <mxPoint x="350" y="-110" as="targetPoint" />
            <Array as="points">
              <mxPoint x="330" y="40" />
              <mxPoint x="330" y="-100" />
            </Array>
          </mxGeometry>
        </mxCell>
        <mxCell id="6bh2XxHN5Hgm9KBowLQd-9" value="NO" style="edgeStyle=orthogonalEdgeStyle;rounded=0;orthogonalLoop=1;jettySize=auto;html=1;" edge="1" parent="WIyWlLk6GJQsqaUBKTNV-1" source="6bh2XxHN5Hgm9KBowLQd-4">
          <mxGeometry relative="1" as="geometry">
            <mxPoint x="220" y="105" as="targetPoint" />
          </mxGeometry>
        </mxCell>
        <mxCell id="6bh2XxHN5Hgm9KBowLQd-4" value="Is space already taken?" style="rhombus;whiteSpace=wrap;html=1;rounded=1;glass=0;strokeWidth=1;shadow=0;" vertex="1" parent="WIyWlLk6GJQsqaUBKTNV-1">
          <mxGeometry x="160" y="-35" width="120" height="100" as="geometry" />
        </mxCell>
        <mxCell id="6bh2XxHN5Hgm9KBowLQd-11" value="YES" style="edgeStyle=orthogonalEdgeStyle;rounded=0;orthogonalLoop=1;jettySize=auto;html=1;exitX=0;exitY=0.5;exitDx=0;exitDy=0;entryX=0;entryY=0.5;entryDx=0;entryDy=0;" edge="1" parent="WIyWlLk6GJQsqaUBKTNV-1" source="6bh2XxHN5Hgm9KBowLQd-20" target="6bh2XxHN5Hgm9KBowLQd-32">
          <mxGeometry relative="1" as="geometry">
            <Array as="points">
              <mxPoint x="-80" y="420" />
              <mxPoint x="-80" y="-290" />
            </Array>
          </mxGeometry>
        </mxCell>
        <mxCell id="6bh2XxHN5Hgm9KBowLQd-18" value="" style="edgeStyle=orthogonalEdgeStyle;rounded=0;orthogonalLoop=1;jettySize=auto;html=1;" edge="1" parent="WIyWlLk6GJQsqaUBKTNV-1" source="6bh2XxHN5Hgm9KBowLQd-8" target="6bh2XxHN5Hgm9KBowLQd-17">
          <mxGeometry relative="1" as="geometry" />
        </mxCell>
        <mxCell id="6bh2XxHN5Hgm9KBowLQd-8" value="Place X in selected spot" style="whiteSpace=wrap;html=1;rounded=1;glass=0;strokeWidth=1;shadow=0;" vertex="1" parent="WIyWlLk6GJQsqaUBKTNV-1">
          <mxGeometry x="160" y="105" width="120" height="60" as="geometry" />
        </mxCell>
        <mxCell id="6bh2XxHN5Hgm9KBowLQd-30" value="" style="edgeStyle=orthogonalEdgeStyle;rounded=0;orthogonalLoop=1;jettySize=auto;html=1;" edge="1" parent="WIyWlLk6GJQsqaUBKTNV-1" source="6bh2XxHN5Hgm9KBowLQd-10" target="6bh2XxHN5Hgm9KBowLQd-25">
          <mxGeometry relative="1" as="geometry" />
        </mxCell>
        <mxCell id="6bh2XxHN5Hgm9KBowLQd-10" value="Set player to O" style="whiteSpace=wrap;html=1;rounded=1;glass=0;strokeWidth=1;shadow=0;" vertex="1" parent="WIyWlLk6GJQsqaUBKTNV-1">
          <mxGeometry x="-50" y="-210" width="120" height="60" as="geometry" />
        </mxCell>
        <mxCell id="6bh2XxHN5Hgm9KBowLQd-21" value="NO" style="edgeStyle=orthogonalEdgeStyle;rounded=0;orthogonalLoop=1;jettySize=auto;html=1;" edge="1" parent="WIyWlLk6GJQsqaUBKTNV-1" source="6bh2XxHN5Hgm9KBowLQd-17" target="6bh2XxHN5Hgm9KBowLQd-20">
          <mxGeometry relative="1" as="geometry" />
        </mxCell>
        <mxCell id="6bh2XxHN5Hgm9KBowLQd-36" value="YES" style="edgeStyle=orthogonalEdgeStyle;rounded=0;orthogonalLoop=1;jettySize=auto;html=1;" edge="1" parent="WIyWlLk6GJQsqaUBKTNV-1" source="6bh2XxHN5Hgm9KBowLQd-17" target="6bh2XxHN5Hgm9KBowLQd-35">
          <mxGeometry relative="1" as="geometry" />
        </mxCell>
        <mxCell id="6bh2XxHN5Hgm9KBowLQd-17" value="Does that move win Tic-Tac-Toe?" style="rhombus;whiteSpace=wrap;html=1;rounded=1;glass=0;strokeWidth=1;shadow=0;" vertex="1" parent="WIyWlLk6GJQsqaUBKTNV-1">
          <mxGeometry x="125" y="210" width="190" height="120" as="geometry" />
        </mxCell>
        <mxCell id="6bh2XxHN5Hgm9KBowLQd-23" value="NO" style="edgeStyle=orthogonalEdgeStyle;rounded=0;orthogonalLoop=1;jettySize=auto;html=1;" edge="1" parent="WIyWlLk6GJQsqaUBKTNV-1" source="6bh2XxHN5Hgm9KBowLQd-20" target="6bh2XxHN5Hgm9KBowLQd-22">
          <mxGeometry relative="1" as="geometry" />
        </mxCell>
        <mxCell id="6bh2XxHN5Hgm9KBowLQd-20" value="Are there any free spaces left?" style="rhombus;whiteSpace=wrap;html=1;rounded=1;glass=0;strokeWidth=1;shadow=0;" vertex="1" parent="WIyWlLk6GJQsqaUBKTNV-1">
          <mxGeometry x="155" y="360" width="130" height="120" as="geometry" />
        </mxCell>
        <mxCell id="6bh2XxHN5Hgm9KBowLQd-41" style="edgeStyle=orthogonalEdgeStyle;rounded=0;orthogonalLoop=1;jettySize=auto;html=1;exitX=1;exitY=0.5;exitDx=0;exitDy=0;" edge="1" parent="WIyWlLk6GJQsqaUBKTNV-1" source="6bh2XxHN5Hgm9KBowLQd-22" target="6bh2XxHN5Hgm9KBowLQd-38">
          <mxGeometry relative="1" as="geometry" />
        </mxCell>
        <mxCell id="6bh2XxHN5Hgm9KBowLQd-22" value="END WITH TIE" style="ellipse;whiteSpace=wrap;html=1;rounded=1;glass=0;strokeWidth=1;shadow=0;" vertex="1" parent="WIyWlLk6GJQsqaUBKTNV-1">
          <mxGeometry x="370" y="390" width="120" height="60" as="geometry" />
        </mxCell>
        <mxCell id="6bh2XxHN5Hgm9KBowLQd-24" value="" style="edgeStyle=orthogonalEdgeStyle;rounded=0;orthogonalLoop=1;jettySize=auto;html=1;" edge="1" parent="WIyWlLk6GJQsqaUBKTNV-1" source="6bh2XxHN5Hgm9KBowLQd-25" target="6bh2XxHN5Hgm9KBowLQd-28">
          <mxGeometry relative="1" as="geometry" />
        </mxCell>
        <mxCell id="6bh2XxHN5Hgm9KBowLQd-25" value="O Placement is selected" style="whiteSpace=wrap;html=1;rounded=1;glass=0;strokeWidth=1;shadow=0;" vertex="1" parent="WIyWlLk6GJQsqaUBKTNV-1">
          <mxGeometry x="-50" y="-130" width="120" height="60" as="geometry" />
        </mxCell>
        <mxCell id="6bh2XxHN5Hgm9KBowLQd-26" value="YES" style="edgeStyle=orthogonalEdgeStyle;rounded=0;orthogonalLoop=1;jettySize=auto;html=1;exitX=1;exitY=0.5;exitDx=0;exitDy=0;entryX=1;entryY=0.5;entryDx=0;entryDy=0;" edge="1" parent="WIyWlLk6GJQsqaUBKTNV-1" source="6bh2XxHN5Hgm9KBowLQd-28" target="6bh2XxHN5Hgm9KBowLQd-25">
          <mxGeometry relative="1" as="geometry">
            <mxPoint x="140" y="-110" as="targetPoint" />
            <Array as="points">
              <mxPoint x="120" y="40" />
              <mxPoint x="120" y="-100" />
            </Array>
          </mxGeometry>
        </mxCell>
        <mxCell id="6bh2XxHN5Hgm9KBowLQd-27" value="NO" style="edgeStyle=orthogonalEdgeStyle;rounded=0;orthogonalLoop=1;jettySize=auto;html=1;" edge="1" parent="WIyWlLk6GJQsqaUBKTNV-1" source="6bh2XxHN5Hgm9KBowLQd-28" target="6bh2XxHN5Hgm9KBowLQd-29">
          <mxGeometry relative="1" as="geometry" />
        </mxCell>
        <mxCell id="6bh2XxHN5Hgm9KBowLQd-28" value="Is space already taken?" style="rhombus;whiteSpace=wrap;html=1;rounded=1;glass=0;strokeWidth=1;shadow=0;" vertex="1" parent="WIyWlLk6GJQsqaUBKTNV-1">
          <mxGeometry x="-50" y="-35" width="120" height="100" as="geometry" />
        </mxCell>
        <mxCell id="6bh2XxHN5Hgm9KBowLQd-31" style="edgeStyle=orthogonalEdgeStyle;rounded=0;orthogonalLoop=1;jettySize=auto;html=1;exitX=0.5;exitY=1;exitDx=0;exitDy=0;entryX=0.5;entryY=0;entryDx=0;entryDy=0;" edge="1" parent="WIyWlLk6GJQsqaUBKTNV-1" source="6bh2XxHN5Hgm9KBowLQd-29" target="6bh2XxHN5Hgm9KBowLQd-17">
          <mxGeometry relative="1" as="geometry" />
        </mxCell>
        <mxCell id="6bh2XxHN5Hgm9KBowLQd-29" value="Place O in selected spot" style="whiteSpace=wrap;html=1;rounded=1;glass=0;strokeWidth=1;shadow=0;" vertex="1" parent="WIyWlLk6GJQsqaUBKTNV-1">
          <mxGeometry x="-50" y="105" width="120" height="60" as="geometry" />
        </mxCell>
        <mxCell id="6bh2XxHN5Hgm9KBowLQd-33" value="YES" style="edgeStyle=orthogonalEdgeStyle;rounded=0;orthogonalLoop=1;jettySize=auto;html=1;exitX=0.5;exitY=1;exitDx=0;exitDy=0;" edge="1" parent="WIyWlLk6GJQsqaUBKTNV-1" source="6bh2XxHN5Hgm9KBowLQd-32" target="6bh2XxHN5Hgm9KBowLQd-10">
          <mxGeometry relative="1" as="geometry" />
        </mxCell>
        <mxCell id="6bh2XxHN5Hgm9KBowLQd-34" value="NO" style="edgeStyle=orthogonalEdgeStyle;rounded=0;orthogonalLoop=1;jettySize=auto;html=1;exitX=1;exitY=0.5;exitDx=0;exitDy=0;entryX=0.5;entryY=0;entryDx=0;entryDy=0;" edge="1" parent="WIyWlLk6GJQsqaUBKTNV-1" source="6bh2XxHN5Hgm9KBowLQd-32" target="6bh2XxHN5Hgm9KBowLQd-0">
          <mxGeometry relative="1" as="geometry">
            <Array as="points">
              <mxPoint x="50" y="-290" />
              <mxPoint x="220" y="-290" />
            </Array>
          </mxGeometry>
        </mxCell>
        <mxCell id="6bh2XxHN5Hgm9KBowLQd-32" value="Is player X?" style="rhombus;whiteSpace=wrap;html=1;" vertex="1" parent="WIyWlLk6GJQsqaUBKTNV-1">
          <mxGeometry x="-30" y="-330" width="80" height="80" as="geometry" />
        </mxCell>
        <mxCell id="6bh2XxHN5Hgm9KBowLQd-39" value="" style="edgeStyle=orthogonalEdgeStyle;rounded=0;orthogonalLoop=1;jettySize=auto;html=1;" edge="1" parent="WIyWlLk6GJQsqaUBKTNV-1" source="6bh2XxHN5Hgm9KBowLQd-35" target="6bh2XxHN5Hgm9KBowLQd-38">
          <mxGeometry relative="1" as="geometry" />
        </mxCell>
        <mxCell id="6bh2XxHN5Hgm9KBowLQd-35" value="CURRENT PLAYER IS WINNER" style="ellipse;whiteSpace=wrap;html=1;rounded=1;glass=0;strokeWidth=1;shadow=0;" vertex="1" parent="WIyWlLk6GJQsqaUBKTNV-1">
          <mxGeometry x="370" y="240" width="120" height="60" as="geometry" />
        </mxCell>
        <mxCell id="6bh2XxHN5Hgm9KBowLQd-40" value="YES" style="edgeStyle=orthogonalEdgeStyle;rounded=0;orthogonalLoop=1;jettySize=auto;html=1;exitX=0.5;exitY=0;exitDx=0;exitDy=0;entryX=1;entryY=0.5;entryDx=0;entryDy=0;" edge="1" parent="WIyWlLk6GJQsqaUBKTNV-1" source="6bh2XxHN5Hgm9KBowLQd-38" target="WIyWlLk6GJQsqaUBKTNV-3">
          <mxGeometry relative="1" as="geometry" />
        </mxCell>
        <mxCell id="6bh2XxHN5Hgm9KBowLQd-43" value="NO" style="edgeStyle=orthogonalEdgeStyle;rounded=0;orthogonalLoop=1;jettySize=auto;html=1;" edge="1" parent="WIyWlLk6GJQsqaUBKTNV-1" source="6bh2XxHN5Hgm9KBowLQd-38" target="6bh2XxHN5Hgm9KBowLQd-42">
          <mxGeometry relative="1" as="geometry" />
        </mxCell>
        <mxCell id="6bh2XxHN5Hgm9KBowLQd-38" value="Play again?" style="rhombus;whiteSpace=wrap;html=1;rounded=1;glass=0;strokeWidth=1;shadow=0;" vertex="1" parent="WIyWlLk6GJQsqaUBKTNV-1">
          <mxGeometry x="510" y="230" width="80" height="80" as="geometry" />
        </mxCell>
        <mxCell id="6bh2XxHN5Hgm9KBowLQd-42" value="HAVE A GREAT DAY" style="ellipse;whiteSpace=wrap;html=1;rounded=1;glass=0;strokeWidth=1;shadow=0;" vertex="1" parent="WIyWlLk6GJQsqaUBKTNV-1">
          <mxGeometry x="640" y="240" width="120" height="60" as="geometry" />
        </mxCell>
      </root>
    </mxGraphModel>
  </diagram>
</mxfile>
